<svg width="28" height="26" viewBox="0 0 28 26" fill="none" xmlns="http://www.w3.org/2000/svg">
<path d="M22.5105 25.926C21.5143 26.6178 15.1226 22.2327 13.8984 22.223C12.6743 22.2135 6.21059 26.4977 5.22606 25.7904C4.24153 25.0831 6.55611 17.8182 6.18725 16.6834C5.8184 15.5486 -0.370187 10.8961 0.0174702 9.76725C0.405213 8.63837 8.22741 8.53352 9.22356 7.84175C10.2197 7.15007 12.8587 -0.00954524 14.0829 9.55473e-06C15.307 0.00964743 17.8268 7.20973 18.8113 7.91703C19.7958 8.62425 27.6154 8.8519 27.9843 9.98668C28.3532 11.1215 22.0883 15.6763 21.7005 16.8051C21.3129 17.934 23.5066 25.2342 22.5105 25.926Z" fill="#585858"/>
</svg>
